<?xml version="1.0" encoding="UTF-8"?>
<svg id="Layer_1" data-name="Layer 1" xmlns="http://www.w3.org/2000/svg" viewBox="0 0 909.11 1077">
  <defs>
    <style>
      .cls-1 {
        fill: none;
        stroke: #fff;
        stroke-miterlimit: 10;
        stroke-width: 2px;
      }

      .cls-2 {
        fill: #fff;
        font-family: Courier, Courier;
        font-size: 24px;
      }
    </style>
  </defs>
  <path class="cls-1" d="M37.8-.5H493.8V48.78c0,1.74,.69,3.41,1.92,4.64l78.86,78.86c1.5,1.5,1.5,3.93,0,5.44l-176.79,176.79c-1.28,1.28-3,1.99-4.81,1.99H226.93c-2.01,0-3.93-.8-5.35-2.22l-106.13-106.13c-.74-.74-1.16-1.75-1.16-2.8v-51.08c0-7.61-6.17-13.78-13.78-13.78H41.27c-1.92,0-3.47-1.55-3.47-3.47V-.5Z"/>
  <path class="cls-1" d="M41.6,149.5h57.04c2.85,0,5.16,2.31,5.16,5.16v52.84c0,2.56,1.02,5.02,2.83,6.83l109.06,110.04c1.35,1.36,3.19,2.13,5.1,2.13h47.76c3.45,0,6.25,2.8,6.25,6.25v213.78c0,2.55,1.01,4.99,2.81,6.79l42.9,42.9c2.11,2.11,3.29,4.96,3.29,7.94v93.78c0,3.56-1.42,6.98-3.94,9.5l-93.9,93.9c-4.51,4.51-11.82,4.51-16.33,0L40.14,631.84c-2.14-2.14-3.34-5.04-3.33-8.07l.98-470.47c0-2.1,1.71-3.8,3.81-3.8Z"/>
  <path class="cls-1" d="M39.8,963.16v-135.91c0-3.18,2.58-5.75,5.75-5.75h110.58c2.35,0,4.6,.93,6.25,2.59l58.22,58.22c2.04,2.04,2.04,5.34,0,7.37l-155.37,155.37c-.92,.92-2.17,1.44-3.48,1.44H20.6c-2.65,0-4.8-2.15-4.8-4.8v-47.38c0-1.17,.43-2.3,1.21-3.18l21.24-23.89c1-1.12,1.55-2.58,1.55-4.08Z"/>
  <path class="cls-1" d="M688.05,786.15c0-1.54,.61-3.01,1.7-4.1l154.28-154.28c1.95-1.95,5.27-.57,5.27,2.18v81.86c0,1.4-.56,2.74-1.54,3.73l-106.28,106.28c-1.08,1.08-1.68,2.54-1.68,4.06v59.94c0,2.1,2.53,3.15,4.02,1.66l160.7-160.7c1.46-1.46,2.29-3.45,2.29-5.52V.5h-70.7c-1.47,0-2.89,.59-3.93,1.63L508.27,326.03c-.94,.94-2.22,1.47-3.55,1.47h-204.37c-2.51,0-4.54,2.04-4.52,4.55l.97,187.29c0,1.2,.98,2.16,2.17,2.16h65.94c1.6,0,2.89,1.3,2.89,2.89v1.07c0,1.68-1.36,3.03-3.03,3.03"/>
  <path class="cls-1" d="M364.77,528.5h-66.03c-1.48,0-2.69,1.2-2.69,2.69v4.74c0,.85,.34,1.66,.94,2.26l47.31,47.31c1.28,1.28,2,3.02,2,4.83v109.46c0,2.06-.82,4.03-2.27,5.49l-40.21,40.21c-1.93,1.93-3.02,4.56-3.02,7.3v102.98c0,6.49,5.26,11.74,11.74,11.74h30.02c6.2,0,11.24,5.03,11.24,11.24v124.44c0,6.53,5.29,11.83,11.83,11.83h171.17c1.6,0,3.14,.64,4.27,1.77l30.01,30.01c3.51,3.51,9.19,3.51,12.7,0l101.38-101.38c1.85-1.85,2.89-4.36,2.89-6.98v-152.26"/>
  <text class="cls-2" transform="translate(96.39 512.03)"><tspan x="0" y="0">Manhattan</tspan></text>
  <text class="cls-2" transform="translate(479.69 484.2)"><tspan x="0" y="0">Queens</tspan></text>
  <text class="cls-2" transform="translate(469.69 794.34)"><tspan x="0" y="0">Brooklyn </tspan></text>
  <text class="cls-2" transform="translate(73.69 880.2)"><tspan x="0" y="0">Staten </tspan><tspan x="0" y="28.8">Island</tspan></text>
  <text class="cls-2" transform="translate(233.69 152.2)"><tspan x="0" y="0">The Bronx</tspan></text>
</svg>